<svg xmlns="http://www.w3.org/2000/svg" xmlns:svg="http://www.w3.org/2000/svg" id="svg5783" width="692" height="400pt" version="1.1" viewBox="0 0 519 400"><metadata id="metadata5846"/><path id="path5786" d="m 99.744949,82.18258 318.500001,0 0,238.5 -318.500001,0 z m 0,0" class=".svg_stroke" style="fill:none;stroke:currentcolor;stroke-width:1.5;stroke-linecap:butt;stroke-linejoin:miter;stroke-miterlimit:10;stroke-dasharray:10,4;stroke-dashoffset:1;stroke-opacity:.26666703"/><path id="path5788" d="m 108.99495,91.43258 300,0 0,220 -300,0 z m 0,0" class=".svg_stroke" style="fill:none;stroke:currentcolor;stroke-width:1.5;stroke-linecap:butt;stroke-linejoin:miter;stroke-miterlimit:10;stroke-dasharray:10,4;stroke-dashoffset:1;stroke-opacity:.2"/><path id="path5792" d="m 264.94334,104.86123 c 0,-2.76172 2.23828,-5 5,-5 l 121.90041,0 c 2.76172,0 5,2.23828 5,5 l 0,48.33333 c 0,2.76172 -2.23828,5 -5,5 l -121.90041,0 c -2.76172,0 -5,-2.23828 -5,-5 z" style="fill:#617fff;fill-opacity:.49019602;fill-rule:nonzero;stroke:#617fff;stroke-width:1.55999994;stroke-miterlimit:4;stroke-dasharray:none;stroke-opacity:1"/><path style="fill:#617fff;fill-opacity:.49019602;fill-rule:nonzero;stroke:#617fff;stroke-width:1.55999994;stroke-miterlimit:4;stroke-dasharray:none;stroke-opacity:1" id="path7583" d="m 119.01924,104.86123 c 0,-2.76172 2.23828,-5 5,-5 l 121.9004,0 c 2.76172,0 5,2.23828 5,5 l 0,83.54115 c 0,2.76172 -2.23828,5 -5,5 l -121.9004,0 c -2.76172,0 -5,-2.23828 -5,-5 z"/><path id="path7587" d="m 119.01924,210.53441 c 0,-2.76172 2.23828,-5 5,-5 l 121.9004,0 c 2.76172,0 5,2.23828 5,5 l 0,83.54115 c 0,2.76172 -2.23828,5 -5,5 l -121.9004,0 c -2.76172,0 -5,-2.23828 -5,-5 z" style="fill:#617fff;fill-opacity:.49019602;fill-rule:nonzero;stroke:#617fff;stroke-width:1.55999994;stroke-miterlimit:4;stroke-dasharray:none;stroke-opacity:1"/><path class=".svg_stroke" style="fill:none;fill-rule:evenodd;stroke:currentcolor;stroke-width:1.20000005;stroke-linecap:round;stroke-linejoin:round;stroke-miterlimit:4;stroke-dasharray:none;stroke-opacity:1" id="path7589" d="m 118.6368,77.0879 0,-10.21376 135.92164,0 0,11.39227"/><path class=".svg_stroke" style="fill:none;fill-rule:evenodd;stroke:currentcolor;stroke-width:1.36000001;stroke-linecap:butt;stroke-linejoin:miter;stroke-miterlimit:4;stroke-dasharray:none;stroke-opacity:1" id="path7595" d="m 182.27641,66.4813 0,-10.99944"/><path id="path7597" d="m 427.60318,224.3777 10.21376,0 0,15.32064 -10.14227,0" class=".svg_stroke" style="fill:none;fill-rule:evenodd;stroke:currentcolor;stroke-width:1.20000005;stroke-linecap:round;stroke-linejoin:round;stroke-miterlimit:4;stroke-dasharray:none;stroke-opacity:1"/><path id="path7599" d="m 438.44336,232.64825 10.99944,0" class=".svg_stroke" style="fill:none;fill-rule:evenodd;stroke:currentcolor;stroke-width:1.36000001;stroke-linecap:butt;stroke-linejoin:miter;stroke-miterlimit:4;stroke-dasharray:none;stroke-opacity:1"/><path class=".svg_stroke" style="fill:none;fill-rule:evenodd;stroke:currentcolor;stroke-width:1.20000005;stroke-linecap:round;stroke-linejoin:round;stroke-miterlimit:4;stroke-dasharray:none;stroke-opacity:1" id="path7601" d="m 265.37038,328.5978 0,10.21376 -15.32064,0 0,-10.14227"/><path class=".svg_stroke" style="fill:none;fill-rule:evenodd;stroke:currentcolor;stroke-width:1.20000005;stroke-linecap:butt;stroke-linejoin:miter;stroke-miterlimit:4;stroke-dasharray:none;stroke-opacity:1" id="path7603" d="m 258.99495,338.6548 0,9.44444 183.33334,0 0,-114.44443"/><text id="text7607" x="452.893" y="235.379" class=".svg_fill" style="font-style:normal;font-weight:400;font-size:11.81261539px;line-height:125%;font-family:sans-serif;letter-spacing:0;word-spacing:0;fill:currentcolor;fill-opacity:1;stroke:none;stroke-width:1px;stroke-linecap:butt;stroke-linejoin:miter;stroke-opacity:1" xml:space="preserve"><tspan id="tspan7609" x="452.893" y="235.379">Gaps</tspan></text><path class=".svg_stroke" style="fill:none;fill-rule:evenodd;stroke:currentcolor;stroke-width:1.20000005;stroke-linecap:butt;stroke-linejoin:miter;stroke-miterlimit:4;stroke-dasharray:none;stroke-opacity:1" id="path7611" d="m 399.82829,90.321468 0,-26.432579 -20.55556,0.04369"/><text id="text7613" x="320.794" y="67.281" class=".svg_fill" xml:space="preserve" style="font-style:normal;font-weight:400;font-size:11.81261539px;line-height:125%;font-family:sans-serif;letter-spacing:0;word-spacing:0;fill:currentcolor;fill-opacity:1;stroke:none;stroke-width:1px;stroke-linecap:butt;stroke-linejoin:miter;stroke-opacity:1"><tspan id="tspan7615" x="320.794" y="67.281">Work area</tspan></text><path id="path7617" d="m 123.14816,328.5978 0,10.21376 -15.32064,0 0,-10.14227" class=".svg_stroke" style="fill:none;fill-rule:evenodd;stroke:currentcolor;stroke-width:1.20000005;stroke-linecap:round;stroke-linejoin:round;stroke-miterlimit:4;stroke-dasharray:none;stroke-opacity:1"/><path class=".svg_stroke" style="fill:none;fill-rule:evenodd;stroke:currentcolor;stroke-width:1.20000005;stroke-linecap:round;stroke-linejoin:round;stroke-miterlimit:4;stroke-dasharray:none;stroke-opacity:1" id="path7619" d="m 96.150273,107.47611 -10.213761,0 0,-15.32064 10.142271,0"/><path class=".svg_stroke" style="fill:none;fill-rule:evenodd;stroke:currentcolor;stroke-width:1.20000005;stroke-linecap:butt;stroke-linejoin:miter;stroke-miterlimit:4;stroke-dasharray:none;stroke-opacity:1" id="path7623" d="m 85.10606,100.32147 -8.333333,0 0,248.33333 38.333333,0"/><path class=".svg_stroke" style="fill:none;fill-rule:evenodd;stroke:currentcolor;stroke-width:1.20000005;stroke-linecap:butt;stroke-linejoin:miter;stroke-miterlimit:4;stroke-dasharray:none;stroke-opacity:1" id="path7625" d="m 115.10606,339.21036 0,24.84505 4.91046,0.0712"/><text id="text7627" x="122.605" y="366.58" class=".svg_fill" xml:space="preserve" style="font-style:normal;font-weight:400;font-size:11.81261539px;line-height:125%;font-family:sans-serif;letter-spacing:0;word-spacing:0;fill:currentcolor;fill-opacity:1;stroke:none;stroke-width:1px;stroke-linecap:butt;stroke-linejoin:miter;stroke-opacity:1"><tspan id="tspan7629" x="122.605" y="366.58">Screen padding</tspan></text><path style="fill:#f55;fill-rule:evenodd;stroke:#9c39bf;stroke-width:1.20000005;stroke-linecap:butt;stroke-linejoin:miter;stroke-miterlimit:4;stroke-dasharray:9.6,4.8;stroke-dashoffset:0;stroke-opacity:1" id="path7631" d="m 257.88384,24.76591 0,276.66667"/><text id="text7591" x="130.151" y="52.78" class=".svg_fill" xml:space="preserve" style="font-style:normal;font-weight:400;font-size:11.81261539px;line-height:125%;font-family:sans-serif;letter-spacing:0;word-spacing:0;fill:currentcolor;fill-opacity:1;stroke:none;stroke-width:1px;stroke-linecap:butt;stroke-linejoin:miter;stroke-opacity:1"><tspan id="tspan7593" x="130.151" y="52.78">Master width factor</tspan></text><path style="fill:#617fff;fill-opacity:.49019602;fill-rule:nonzero;stroke:#617fff;stroke-width:1.55999994;stroke-miterlimit:4;stroke-dasharray:none;stroke-opacity:1" id="path7643" d="m 264.94334,175.41679 c 0,-2.76172 2.23828,-5 5,-5 l 121.90041,0 c 2.76172,0 5,2.23828 5,5 l 0,48.33333 c 0,2.76172 -2.23828,5 -5,5 l -121.90041,0 c -2.76172,0 -5,-2.23828 -5,-5 z"/><path id="path7645" d="m 264.94334,246.5279 c 0,-2.76172 2.23828,-5 5,-5 l 121.90041,0 c 2.76172,0 5,2.23828 5,5 l 0,48.33333 c 0,2.76172 -2.23828,5 -5,5 l -121.90041,0 c -2.76172,0 -5,-2.23828 -5,-5 z" style="fill:#617fff;fill-opacity:.49019602;fill-rule:nonzero;stroke:#617fff;stroke-width:1.55999994;stroke-miterlimit:4;stroke-dasharray:none;stroke-opacity:1"/><path id="path7647" d="m 176.21717,144.76591 -107.222221,0 10e-7,114.44445 105.55556,0" style="fill:none;fill-rule:evenodd;stroke:#9c39bf;stroke-width:1.20000005;stroke-linecap:butt;stroke-linejoin:miter;stroke-miterlimit:4;stroke-dasharray:9.6,4.8;stroke-dashoffset:0;stroke-opacity:1"/><path id="path7649" d="m 68.578283,204.27776 -13.814013,-0.0674 -0.537961,175.00485 65.366651,0.22526" style="fill:none;fill-rule:evenodd;stroke:#9c39bf;stroke-width:1.20000005;stroke-linecap:butt;stroke-linejoin:miter;stroke-miterlimit:4;stroke-dasharray:9.6,4.8;stroke-dashoffset:0;stroke-opacity:1"/><text id="text7651" x="122.605" y="382.34" class=".svg_fill" style="font-style:normal;font-weight:400;font-size:11.81261539px;line-height:125%;font-family:sans-serif;letter-spacing:0;word-spacing:0;fill:currentcolor;fill-opacity:1;stroke:none;stroke-width:1px;stroke-linecap:butt;stroke-linejoin:miter;stroke-opacity:1" xml:space="preserve"><tspan id="tspan7653" x="122.605" y="382.34">Masters</tspan></text><path id="path8456" d="m 118.6368,77.0879 0,-10.21376 135.92164,0 0,11.39227" class=".svg_stroke" style="fill:none;fill-rule:evenodd;stroke:currentcolor;stroke-width:1.20000005;stroke-linecap:round;stroke-linejoin:round;stroke-miterlimit:4;stroke-dasharray:none;stroke-opacity:1"/><path id="path8458" d="m 413.99495,82.265912 0,-40.877023 -33.88889,0.321471" class=".svg_stroke" style="fill:none;fill-rule:evenodd;stroke:currentcolor;stroke-width:1.20000005;stroke-linecap:butt;stroke-linejoin:miter;stroke-miterlimit:4;stroke-dasharray:none;stroke-opacity:1"/><text id="text8466" x="310.6" y="45.726" class=".svg_fill" style="font-style:normal;font-weight:400;font-size:11.81261539px;line-height:125%;font-family:sans-serif;letter-spacing:0;word-spacing:0;fill:currentcolor;fill-opacity:1;stroke:none;stroke-width:1px;stroke-linecap:butt;stroke-linejoin:miter;stroke-opacity:1" xml:space="preserve"><tspan id="tspan8468" x="310.6" y="45.726">Screen area</tspan></text><text id="text6363" x="237.017" y="18.35" class=".svg_fill" xml:space="preserve" style="font-style:normal;font-weight:400;font-size:10.9279623px;line-height:125%;font-family:sans-serif;letter-spacing:0;word-spacing:0;fill:currentcolor;fill-opacity:1;stroke:none;stroke-width:1px;stroke-linecap:butt;stroke-linejoin:miter;stroke-opacity:1"><tspan id="tspan6365" x="237.017" y="18.35">Columns</tspan></text></svg>